<?xml version="1.0" standalone="no"?>
<!DOCTYPE svg PUBLIC "-//W3C//DTD SVG 20010904//EN"
 "http://www.w3.org/TR/2001/REC-SVG-20010904/DTD/svg10.dtd">
<svg version="1.0" xmlns="http://www.w3.org/2000/svg"
 width="880.000000pt" height="880.000000pt" viewBox="0 0 880.000000 880.000000"
 preserveAspectRatio="xMidYMid meet">
<metadata>
Created by potrace 1.14, written by Peter Selinger 2001-2017
</metadata>
<g transform="translate(0.000000,880.000000) scale(0.100000,-0.100000)"
fill="#000000" stroke="none">
<path d="M2735 8379 c-141 -14 -370 -69 -493 -118 -699 -279 -1058 -952 -887
-1661 28 -112 101 -310 116 -310 5 0 9 42 9 94 0 123 14 222 51 352 33 117
137 360 150 347 4 -4 24 -53 44 -108 44 -118 110 -246 170 -331 63 -88 209
-233 285 -283 l65 -42 6 114 c12 209 42 334 120 489 25 50 39 91 39 116 0 128
61 299 146 410 34 45 136 132 183 156 49 26 148 46 224 46 227 0 435 -182 504
-440 28 -103 25 -429 -5 -569 l-23 -103 57 -75 c32 -41 110 -126 173 -188 167
-162 454 -425 466 -425 16 0 116 125 185 230 119 182 203 381 247 590 24 116
25 415 0 548 -53 289 -206 563 -421 753 -238 212 -537 344 -901 399 -98 15
-402 21 -510 9z"/>
<path d="M2607 6888 c-44 -74 -97 -210 -112 -294 -17 -86 -19 -311 -5 -421 13
-104 37 -143 126 -209 96 -71 171 -146 224 -224 44 -65 105 -188 98 -196 -3
-2 -32 27 -66 66 -96 111 -174 173 -362 286 -412 250 -478 292 -541 345 -82
68 -154 147 -198 217 -18 28 -37 52 -42 52 -16 0 -24 -55 -24 -165 1 -123 20
-214 65 -310 16 -33 27 -62 25 -64 -3 -2 -40 3 -82 13 -158 33 -483 59 -483
38 0 -5 21 -24 47 -43 68 -48 196 -179 239 -243 47 -71 55 -130 26 -178 -40
-64 -113 -112 -385 -252 -103 -53 -234 -127 -290 -164 l-102 -67 135 -6 c74
-4 162 -14 194 -23 137 -38 228 -118 267 -233 28 -85 22 -200 -16 -321 -14
-46 -25 -88 -23 -93 2 -5 43 20 92 55 243 174 572 344 764 395 23 7 40 16 37
21 -8 12 -89 35 -180 50 -134 23 -129 14 -54 83 117 109 289 196 479 242 135
32 248 47 335 43 l70 -3 -135 -44 c-197 -63 -418 -160 -427 -187 -2 -6 32 -18
78 -28 78 -17 235 -70 253 -87 4 -4 -11 -17 -35 -30 -106 -53 -235 -159 -303
-248 -48 -63 -121 -189 -113 -197 3 -3 33 4 68 15 84 28 228 45 316 37 97 -9
172 -36 249 -91 98 -70 150 -158 161 -272 11 -121 -27 -235 -122 -361 -26 -35
-45 -66 -41 -69 5 -5 132 8 224 24 23 4 32 2 32 -8 0 -31 -66 -126 -132 -191
l-69 -68 47 0 c149 0 381 113 505 244 50 55 64 74 73 104 7 21 5 22 -49 22
-146 0 -177 59 -140 265 8 44 15 83 15 88 0 4 -18 -2 -40 -13 -67 -34 -93 -23
-125 53 -28 68 -13 177 42 299 14 31 23 64 20 72 -7 17 -49 30 -167 52 -155
28 -155 28 -71 48 239 55 572 74 733 41 133 -27 148 -82 70 -251 l-41 -89 137
-7 c229 -11 344 -51 418 -146 47 -61 57 -101 52 -198 -2 -46 -3 -84 -1 -84 19
0 90 49 137 95 99 98 193 259 251 430 31 91 44 241 26 288 l-11 29 -70 -71
c-104 -105 -180 -137 -180 -76 0 31 -30 93 -56 116 -11 9 -39 27 -63 39 l-43
22 6 66 c19 188 -70 412 -250 630 -39 48 -147 157 -240 242 -454 417 -538 507
-638 685 -55 98 -91 200 -111 314 -9 47 -17 87 -20 89 -4 5 -12 -13 -42 -93
-43 -117 -57 -344 -28 -442 17 -56 45 -88 199 -228 247 -223 386 -357 454
-436 92 -106 118 -142 177 -254 l48 -90 -84 90 c-241 261 -388 400 -654 620
-112 92 -267 250 -326 332 -106 146 -172 319 -188 488 l-6 70 -28 -47z m1036
-1651 c34 -24 81 -65 104 -90 45 -49 103 -154 103 -186 0 -19 -2 -19 -52 -5
-150 44 -245 141 -284 287 l-13 49 39 -5 c25 -3 63 -22 103 -50z"/>
<path d="M6660 5826 c-154 -55 -312 -152 -558 -344 -159 -125 -187 -142 -231
-142 -65 0 -61 54 15 183 25 43 43 81 41 84 -8 7 -45 -15 -122 -73 -257 -192
-451 -417 -576 -666 -52 -102 -107 -254 -96 -265 4 -3 48 35 99 85 253 247
532 416 874 527 149 49 247 70 389 84 185 19 230 21 244 12 8 -5 -16 -11 -65
-15 -123 -12 -333 -68 -494 -134 -378 -154 -676 -373 -978 -719 -113 -130
-312 -377 -372 -460 l-31 -42 79 -40 c77 -38 185 -118 342 -250 41 -34 83 -67
92 -72 15 -8 32 20 129 213 203 406 335 627 499 838 171 219 316 319 560 386
50 14 104 18 235 18 l170 1 100 -36 c55 -20 120 -44 145 -54 64 -24 112 -15
237 43 299 141 609 203 897 181 60 -5 112 -7 114 -4 12 12 -225 204 -336 273
-198 124 -399 191 -663 223 -165 19 -419 -8 -604 -66 -144 -45 -216 -49 -238
-14 -25 40 33 127 133 202 36 27 67 53 68 58 6 14 -28 9 -98 -15z"/>
<path d="M1067 4742 c-53 -36 -237 -222 -316 -321 -87 -110 -143 -200 -203
-328 -59 -126 -120 -326 -133 -439 l-7 -59 63 61 c72 68 109 94 137 94 42 0
59 -61 38 -135 -79 -278 -100 -362 -123 -500 -23 -139 -26 -188 -25 -375 1
-303 38 -518 132 -755 56 -143 75 -181 148 -299 76 -122 292 -389 305 -376 3
3 -3 37 -13 75 -10 39 -21 104 -24 145 -8 92 4 124 51 128 27 3 48 -12 176
-128 364 -328 633 -471 1057 -561 93 -20 134 -23 355 -23 220 -1 265 2 375 23
346 64 576 156 835 332 227 155 429 351 606 589 144 195 294 438 283 462 -3 7
-53 51 -111 98 -57 47 -137 112 -177 145 -40 33 -118 96 -172 140 -54 44 -119
97 -143 117 -24 21 -48 38 -52 38 -5 0 -31 -33 -57 -74 -248 -374 -556 -632
-883 -743 -79 -26 -94 -28 -254 -28 -159 0 -175 2 -247 28 -321 112 -540 380
-615 753 -26 129 -24 379 5 539 50 285 186 570 381 798 54 64 77 98 69 103 -6
4 -47 10 -90 12 -90 5 -154 -12 -233 -62 -27 -18 -107 -69 -176 -114 -69 -45
-133 -84 -142 -88 -20 -7 -22 13 -7 101 16 93 50 333 50 350 0 8 -5 15 -11 15
-19 0 -122 -52 -204 -103 -173 -108 -280 -198 -496 -421 l-147 -151 -8 40
c-24 116 -1 407 57 709 35 185 20 236 -54 188z"/>
<path d="M3403 4523 c-5 -16 -7 -64 -6 -108 2 -142 37 -194 243 -358 182 -145
216 -198 231 -361 12 -128 16 -147 47 -226 56 -143 130 -226 388 -431 44 -35
152 -123 240 -195 87 -71 195 -159 239 -195 145 -116 230 -204 268 -277 66
-127 69 -146 77 -487 8 -331 14 -378 67 -514 64 -161 201 -312 344 -380 46
-22 97 -43 114 -47 l30 -7 -40 45 c-73 83 -145 264 -145 364 0 94 59 246 124
321 44 51 56 53 56 14 0 -49 68 -272 105 -343 162 -317 414 -505 752 -563 243
-42 515 -7 756 96 120 52 286 152 338 205 l42 43 -169 -6 c-192 -7 -241 2
-367 61 -65 31 -174 112 -164 122 2 2 50 9 108 14 555 55 924 270 1084 630 39
89 54 167 55 285 0 122 -18 201 -69 308 -81 170 -212 320 -365 420 -67 44
-222 111 -316 136 -73 20 -318 47 -328 36 -7 -7 -6 -8 78 -48 141 -67 236
-190 260 -337 11 -66 11 -82 -4 -135 -25 -85 -55 -133 -131 -203 -97 -92 -263
-166 -425 -192 -70 -11 -308 -14 -334 -4 -13 5 -7 17 30 58 25 28 60 83 79
121 56 112 69 181 69 340 0 135 -1 143 -32 221 -18 45 -50 109 -71 141 -41 63
-182 213 -201 213 -7 0 -8 -16 -3 -52 4 -29 8 -93 7 -143 0 -77 -4 -97 -27
-142 -53 -104 -123 -157 -248 -189 -133 -34 -255 12 -449 168 -146 117 -275
222 -585 473 -135 110 -272 219 -305 241 -100 71 -190 95 -413 109 -98 7 -131
16 -165 48 -35 33 -47 62 -71 174 -27 127 -41 161 -83 202 -42 41 -124 65
-290 86 -134 16 -188 31 -253 69 -58 35 -101 83 -129 149 -14 31 -28 57 -31
57 -2 0 -8 -12 -12 -27z"/>
</g>
</svg>
